<?xml version="1.0" encoding="UTF-8"?>
<!DOCTYPE svg PUBLIC "-//W3C//DTD SVG 1.1//EN" "http://www.w3.org/Graphics/SVG/1.1/DTD/svg11.dtd">
<!-- Creator: CorelDRAW X7 -->
<svg xmlns="http://www.w3.org/2000/svg" xml:space="preserve" width="0.666661in" height="0.233331in" version="1.1" style="shape-rendering:geometricPrecision; text-rendering:geometricPrecision; image-rendering:optimizeQuality; fill-rule:evenodd; clip-rule:evenodd"
viewBox="0 0 667 233"
 xmlns:xlink="http://www.w3.org/1999/xlink">
 <defs>
  <style type="text/css">
   <![CDATA[
    .str3 {stroke:#96989A;stroke-width:6.94094}
    .str1 {stroke:#00A859;stroke-width:6.94094}
    .str0 {stroke:#373435;stroke-width:3}
    .str2 {stroke:#ED3237;stroke-width:3}
    .fil2 {fill:none}
    .fil3 {fill:#FEFEFE}
    .fil4 {fill:#BDBFC1}
    .fil1 {fill:#373435}
    .fil5 {fill:#ED3237}
    .fil0 {fill:#373435;fill-rule:nonzero}
   ]]>
  </style>
 </defs>
 <g id="Layer_x0020_1">
  <metadata id="CorelCorpID_0Corel-Layer"/>
  <path class="fil0" d="M245 108l-18 -40 0 32c0,3 0,4 1,5 1,1 2,2 4,2l2 0 0 1 -17 0 0 -1 2 0c2,0 3,-1 4,-2 1,-1 1,-3 1,-5l0 -31c0,-2 0,-4 -1,-5 0,0 -1,-1 -2,-1 -1,-1 -2,-1 -4,-1l0 -1 14 0 17 37 16 -37 14 0 0 1 -2 0c-2,0 -3,1 -4,2 -1,1 -1,2 -1,5l0 31c0,3 0,4 1,5 1,1 2,2 4,2l2 0 0 1 -20 0 0 -1 1 0c2,0 4,-1 5,-2 0,-1 0,-3 0,-5l0 -32 -18 40 -1 0z"/>
  <path id="1" class="fil0" d="M297 75c5,0 9,2 12,6 2,3 3,6 3,10 0,3 0,6 -2,9 -1,3 -3,5 -5,7 -3,1 -5,2 -8,2 -5,0 -9,-2 -12,-6 -2,-3 -3,-7 -3,-11 0,-3 0,-6 2,-8 1,-3 3,-5 6,-7 2,-1 4,-2 7,-2zm-1 2c-1,0 -2,1 -4,2 -1,0 -2,2 -3,3 0,2 -1,5 -1,7 0,5 1,9 3,12 2,4 4,5 7,5 2,0 4,-1 6,-2 1,-2 2,-5 2,-10 0,-6 -1,-10 -4,-13 -1,-2 -3,-4 -6,-4z"/>
  <path id="2" class="fil0" d="M325 59c1,0 2,0 3,1 0,0 1,1 1,2 0,1 -1,2 -1,3 -1,0 -2,1 -3,1 -1,0 -2,-1 -2,-1 -1,-1 -1,-2 -1,-3 0,-1 0,-2 1,-2 0,-1 1,-1 2,-1zm3 16l0 26c0,2 0,3 0,4 1,0 1,1 2,1 0,0 1,1 3,1l0 1 -16 0 0 -1c2,0 3,-1 3,-1 1,0 1,-1 2,-1 0,-1 0,-2 0,-4l0 -13c0,-3 0,-5 0,-6 0,-1 -1,-1 -1,-2 0,0 -1,0 -1,0 -1,0 -2,0 -3,0l0 -1 9 -4 2 0z"/>
  <path id="3" class="fil0" d="M386 62l0 -1 17 0 0 1 -2 0c-2,0 -3,1 -4,2 -1,1 -1,3 -1,5l0 20c0,4 -1,8 -1,10 -1,3 -3,5 -6,7 -3,2 -6,3 -11,3 -5,0 -9,-1 -12,-3 -2,-1 -4,-4 -5,-7 -1,-2 -2,-6 -2,-11l0 -19c0,-3 0,-5 -1,-6 -1,0 -2,-1 -4,-1l-1 0 0 -1 20 0 0 1 -2 0c-2,0 -3,1 -4,2 -1,1 -1,3 -1,5l0 21c0,1 0,4 1,6 0,2 1,4 1,5 1,2 3,3 4,4 2,1 4,1 6,1 3,0 6,-1 9,-2 2,-1 4,-3 5,-5 0,-2 1,-6 1,-11l0 -19c0,-3 0,-5 -1,-5 -1,-1 -2,-2 -4,-2l-2 0z"/>
  <path id="4" class="fil0" d="M415 82c4,-5 7,-7 11,-7 1,0 3,1 4,1 1,1 2,3 3,5 1,1 1,3 1,6l0 14c0,2 0,3 0,4 1,0 1,1 2,1 0,0 1,1 3,1l0 1 -16 0 0 -1 1 0c1,0 2,-1 3,-1 0,0 1,-1 1,-2 0,0 0,-1 0,-3l0 -13c0,-3 0,-5 -1,-7 -1,-1 -2,-2 -4,-2 -3,0 -5,2 -8,5l0 17c0,2 0,3 0,4 1,0 1,1 2,1 0,0 1,1 3,1l0 1 -16 0 0 -1 1 0c2,0 3,-1 3,-2 1,0 1,-2 1,-4l0 -12c0,-4 0,-6 0,-7 0,-1 0,-1 -1,-2 0,0 -1,0 -1,0 -1,0 -2,0 -3,0l0 -1 10 -4 1 0 0 7z"/>
  <path id="5" class="fil0" d="M449 59c1,0 2,0 3,1 1,0 1,1 1,2 0,1 0,2 -1,3 -1,0 -2,1 -3,1 -1,0 -1,-1 -2,-1 -1,-1 -1,-2 -1,-3 0,-1 0,-2 1,-2 1,-1 1,-1 2,-1zm3 16l0 26c0,2 0,3 1,4 0,0 0,1 1,1 1,0 2,1 3,1l0 1 -15 0 0 -1c1,0 2,-1 3,-1 0,0 1,-1 1,-1 0,-1 0,-2 0,-4l0 -13c0,-3 0,-5 0,-6 0,-1 0,-1 -1,-2 0,0 0,0 -1,0 -1,0 -1,0 -2,0l-1 -1 10 -4 1 0z"/>
  <path id="6" class="fil0" d="M459 76l15 0 0 1 -1 0c-1,0 -1,1 -2,1 0,0 0,1 0,2 0,1 0,2 0,3l8 17 7 -18c1,-1 1,-2 1,-3 0,0 0,-1 0,-1 -1,0 -1,0 -1,0 -1,-1 -2,-1 -3,-1l0 -1 11 0 0 1c-2,0 -2,1 -3,1 -1,1 -1,2 -2,4l-11 27 -2 0 -11 -27c-1,-1 -1,-2 -2,-3 0,0 -1,-1 -1,-1 -1,0 -1,0 -3,-1l0 -1z"/>
  <path id="7" class="fil0" d="M502 88c0,5 1,8 3,11 3,3 5,4 8,4 2,0 4,0 6,-2 1,-1 3,-3 4,-5l1 0c-1,3 -2,6 -4,9 -3,3 -6,4 -9,4 -4,0 -7,-2 -10,-5 -3,-3 -4,-7 -4,-12 0,-5 1,-9 4,-12 3,-3 6,-5 11,-5 3,0 6,1 8,4 3,2 4,5 4,9l-22 0zm0 -2l15 0c-1,-2 -1,-3 -1,-4 -1,-1 -2,-2 -3,-3 -1,-1 -2,-1 -3,-1 -2,0 -4,0 -6,2 -1,1 -2,3 -2,6z"/>
  <path id="8" class="fil0" d="M537 75l0 7c3,-4 6,-7 9,-7 1,0 2,1 3,1 0,1 1,2 1,3 0,1 0,2 -1,2 -1,1 -1,1 -2,1 -1,0 -2,0 -3,-1 -1,-1 -2,-1 -2,-1 0,0 -1,0 -1,1 -1,1 -2,2 -4,4l0 15c0,2 1,4 1,4 0,1 1,2 2,2 0,0 2,1 3,1l0 1 -16 0 0 -1c1,0 2,-1 3,-1 1,0 1,-1 1,-2 1,0 1,-1 1,-3l0 -13c0,-3 0,-5 -1,-6 0,-1 0,-1 0,-2 -1,0 -1,0 -2,0 -1,0 -1,0 -2,0l-1 -1 10 -4 1 0z"/>
  <path id="9" class="fil0" d="M572 75l0 11 -1 0c-1,-3 -2,-6 -3,-7 -2,-1 -3,-2 -6,-2 -1,0 -2,1 -3,2 -1,0 -2,1 -2,2 0,2 0,3 1,4 1,1 2,2 5,3l5 2c4,2 7,5 7,9 0,3 -1,5 -4,7 -2,2 -4,3 -7,3 -2,0 -4,-1 -7,-1 0,0 -1,-1 -2,-1 0,0 0,1 -1,1l-1 0 0 -11 1 0c1,3 2,6 4,7 2,2 4,3 6,3 2,0 3,-1 4,-2 1,-1 2,-2 2,-3 0,-2 -1,-3 -2,-4 -1,-1 -4,-2 -7,-4 -3,-2 -5,-3 -6,-5 -2,-1 -2,-3 -2,-5 0,-2 1,-4 3,-6 1,-2 4,-3 7,-3 1,0 2,0 4,1 1,0 2,1 2,1 1,0 1,-1 1,-1 1,0 1,0 1,-1l1 0z"/>
  <path id="10" class="fil0" d="M587 59c1,0 2,0 3,1 1,0 1,1 1,2 0,1 0,2 -1,3 -1,0 -2,1 -3,1 0,0 -1,-1 -2,-1 -1,-1 -1,-2 -1,-3 0,-1 0,-2 1,-2 1,-1 1,-1 2,-1zm3 16l0 26c0,2 0,3 1,4 0,0 0,1 1,1 1,0 2,1 3,1l0 1 -15 0 0 -1c1,0 2,-1 3,-1 0,0 1,-1 1,-1 0,-1 1,-2 1,-4l0 -13c0,-3 -1,-5 -1,-6 0,-1 0,-1 0,-2 -1,0 -1,0 -2,0 -1,0 -1,0 -2,0l-1 -1 10 -4 1 0z"/>
  <path id="11" class="fil0" d="M608 66l0 10 8 0 0 2 -8 1 0 20c0,2 1,4 1,4 1,1 2,1 3,1 0,0 1,0 2,0 0,-1 1,-2 1,-2l2 0c-1,2 -2,4 -4,5 -1,1 -3,1 -4,1 -1,0 -2,0 -3,0 -1,-1 -2,-2 -3,-3 0,-1 0,-3 0,-5l0 -22 -5 0 0 -1c1,0 2,-1 3,-2 2,-1 3,-3 4,-5 1,0 1,-2 2,-4l1 0z"/>
  <path id="12" class="fil0" d="M617 76l15 0 0 1 -1 0c-1,0 -2,1 -2,1 -1,0 -1,1 -1,2 0,1 0,2 1,3l8 17 7 -18c0,-1 1,-2 1,-3 0,0 -1,-1 -1,-1 0,0 0,0 -1,0 0,-1 -1,-1 -2,-1l0 -1 11 0 0 1c-1,0 -2,1 -2,1 -1,0 -1,1 -2,1 0,1 0,2 -1,3l-13 32c-1,3 -3,5 -5,7 -2,1 -4,2 -6,2 -1,0 -2,0 -3,-1 -1,-1 -1,-2 -1,-3 0,-1 0,-1 1,-2 0,-1 1,-1 2,-1 1,0 2,0 3,1 1,0 2,0 2,0 1,0 2,0 2,-1 1,0 2,-2 3,-4l2 -5 -11 -24c-1,-1 -1,-2 -2,-3 -1,-1 -1,-1 -1,-2 -1,0 -2,0 -3,-1l0 -1z"/>
  <path class="fil0" d="M248 144l-1 0c0,-1 1,-2 1,-2 0,-1 -1,-1 -1,-1 0,0 -1,0 -2,0l-1 0 0 0 -5 0c0,0 0,1 0,2 -1,3 -2,5 -2,7l4 0c1,0 2,-1 2,-1 0,0 1,0 1,-1l1 0c-1,1 -1,3 -1,5l-1 0c0,-1 0,-1 0,-1 0,-1 0,-1 -1,-1 0,0 -1,0 -1,0l-4 0c-1,2 -1,4 -2,6 -1,2 -1,4 -2,5 2,0 3,0 3,0 1,0 2,0 2,0l0 2c-1,0 -1,0 -1,0 -1,0 -2,0 -3,-1 -1,0 -2,0 -3,0 -1,0 -2,0 -4,1l0 -1c2,-1 2,-1 3,-1 0,-1 0,-1 1,-1 0,-1 1,-4 2,-8l3 -12c-2,0 -3,0 -5,1 -1,1 -2,2 -3,3 -1,1 -1,3 -1,4 0,0 0,1 0,1 0,1 0,1 1,2 0,1 0,1 0,1 0,1 0,1 0,1 0,0 -1,0 -1,0 -1,0 -1,0 -1,0 -1,-1 -1,-2 -1,-4 0,-2 1,-5 3,-7 2,-3 5,-4 9,-4l8 0c0,0 1,0 3,0 0,0 1,0 2,0 -1,2 -2,4 -2,5z"/>
  <path id="1" class="fil0" d="M258 146c2,0 3,1 4,2 1,1 1,2 1,4 0,3 -1,6 -3,8 -2,3 -4,4 -7,4 -1,0 -3,-1 -3,-2 -1,0 -2,-2 -2,-3 0,-3 1,-6 3,-8 2,-4 4,-5 7,-5zm-1 2c-1,0 -3,0 -4,2 -1,2 -1,4 -1,7 0,2 0,3 1,4 0,1 1,1 2,1 1,0 2,0 3,-2 1,-2 2,-4 2,-7 0,-2 -1,-3 -1,-4 -1,-1 -1,-1 -2,-1z"/>
  <path id="2" class="fil0" d="M279 147l3 0 -2 7c-1,4 -2,6 -2,7 0,0 0,0 1,0 0,1 0,1 0,1 0,0 0,0 1,-1 0,0 1,-1 2,-2l1 1c-3,3 -5,4 -6,4 -1,0 -1,0 -1,0 -1,-1 -1,-1 -1,-2 0,-1 0,-2 1,-3 -1,2 -3,3 -5,4 -1,1 -2,1 -3,1 0,0 -1,0 -1,0 0,-1 0,-1 0,-2 0,-1 0,-1 0,-2 0,-1 0,-2 1,-5 1,-3 2,-5 2,-6 0,0 -1,0 -1,0 0,0 0,0 -1,0 0,0 -1,1 -2,2l-1 -1c2,-2 3,-3 4,-3 1,-1 2,-1 3,-1 0,0 0,0 0,0 1,1 1,1 1,1 0,1 -1,4 -2,7 -1,4 -1,6 -1,6 0,0 0,1 0,1 0,0 1,0 1,0 1,0 2,0 3,-2 1,-1 2,-2 3,-4l2 -8z"/>
  <path id="3" class="fil0" d="M285 151l-1 -1c2,-2 4,-3 5,-3 1,-1 2,-1 2,-1 1,0 1,0 1,0 0,0 0,0 0,1 0,0 0,0 0,0l-1 4c2,-1 3,-3 6,-4 1,-1 2,-1 2,-1 1,0 1,0 2,0 0,1 0,1 0,2 0,0 0,1 0,1 0,1 -1,3 -2,6 -1,3 -1,5 -1,6 0,0 0,0 0,0 0,1 0,1 0,1 1,0 1,-1 2,-1 1,-1 1,-2 2,-2l0 1c-1,1 -2,2 -4,3 0,1 -1,1 -2,1 0,0 -1,0 -1,-1 0,0 0,-1 0,-2 0,-1 0,-4 2,-9 0,-1 1,-2 1,-3 0,0 -1,0 -1,0 -1,0 -1,0 -2,1 -1,0 -3,1 -3,3 -1,0 -1,2 -2,3l-1 7 -4 0c1,-2 2,-4 2,-6l2 -7c0,-1 0,-1 0,-1 0,0 0,-1 -1,-1 0,0 0,1 0,1 -1,0 -2,1 -3,2z"/>
  <path id="4" class="fil0" d="M320 159l0 1c-1,1 -3,2 -4,3 -1,1 -2,1 -3,1 0,0 0,0 0,0 -1,0 -1,-1 -1,-1 0,0 0,-1 0,-1l1 -3c-1,2 -3,3 -4,4 -1,1 -2,1 -3,1 -1,0 -1,0 -2,-1 0,-1 0,-2 0,-3 0,-2 0,-4 2,-7 1,-2 2,-4 4,-5 2,-1 3,-2 5,-2 0,0 0,0 1,0 1,-3 1,-5 2,-6 0,-1 1,-2 2,-3 1,-1 2,-1 3,-2 1,0 3,-1 4,-1 0,0 1,0 1,1 0,0 0,0 0,1 0,0 0,1 0,1 0,0 -1,0 -1,0 -1,0 -1,0 -2,0 -1,0 -2,0 -2,0 -1,0 -1,0 -1,0 -1,1 -1,1 -1,2 -1,1 -1,3 -2,6l-3 13c0,1 0,2 0,3 0,0 0,0 0,0 0,0 1,0 1,0 1,0 1,-1 3,-2zm-5 -11c-1,0 -1,0 -2,0 -1,0 -2,0 -3,1 0,1 -1,2 -2,4 -1,2 -1,4 -1,6 0,0 0,1 0,1 1,1 1,1 2,1 0,0 1,0 1,-1 2,0 2,-1 3,-2 0,-1 1,-3 2,-5l0 -5z"/>
  <path id="5" class="fil0" d="M337 146l1 -1 -2 6c0,2 -1,4 -1,7 -1,1 -1,2 -1,3 0,0 0,0 1,0 0,0 0,0 1,0 1,-1 1,-1 2,-2l1 1c-2,1 -3,2 -3,2 -1,1 -2,1 -3,2 0,0 -1,0 -1,0 -1,0 -1,0 -1,0 0,0 0,-1 0,-1 0,0 0,-1 0,-1l1 -3c-1,2 -3,3 -4,4 -1,1 -2,1 -3,1 -1,0 -2,0 -2,-1 -1,-1 -1,-2 -1,-3 0,-1 0,-3 1,-5 1,-2 2,-3 3,-5 2,-1 3,-2 4,-3 2,0 3,-1 5,-1 0,0 1,0 1,0l1 0zm-3 3c-1,0 -1,0 -2,0 -1,0 -2,0 -3,1 -1,0 -2,2 -3,3 0,2 -1,4 -1,6 0,1 0,1 1,2 0,0 0,0 1,0 1,0 2,0 3,-1 1,-1 2,-3 2,-5l2 -6z"/>
  <path id="6" class="fil0" d="M346 143l3 -1 -1 5 4 0 0 2 -4 0 -2 7c-1,2 -1,3 -1,4 0,0 0,1 0,1 0,0 0,0 1,0 0,0 1,0 2,-1 1,0 2,-1 3,-2l1 1c-3,2 -5,4 -6,4 -1,1 -2,1 -3,1 0,0 -1,0 -1,-1 0,0 0,-1 0,-1 0,-1 0,-3 0,-5l2 -8 -3 0 1 -2 3 0 1 -4z"/>
  <path id="7" class="fil0" d="M363 137c0,0 0,0 1,1 0,0 0,0 0,1 0,0 0,1 -1,1 0,1 0,1 -1,1 0,0 -1,0 -1,-1 0,0 0,0 0,-1 0,0 0,-1 0,-1 1,-1 1,-1 2,-1zm-9 14l0 -1c1,-1 2,-3 3,-3 1,-1 2,-1 3,-1 1,0 1,0 1,0 0,0 0,1 0,1 0,0 0,2 -1,5 -1,5 -2,8 -2,9 0,0 0,0 0,0 0,0 0,1 0,1 1,0 2,-1 4,-3l1 1c-2,2 -4,3 -4,3 -1,1 -2,1 -3,1 0,0 0,0 -1,-1 0,0 0,0 0,-1 0,-2 1,-6 3,-12 0,-1 0,-1 0,-1 0,-1 0,-1 0,-1 -1,0 -1,0 -1,1 -1,0 -1,1 -3,2z"/>
  <path id="8" class="fil0" d="M374 146c1,0 3,1 3,2 1,1 2,2 2,4 0,3 -1,6 -3,8 -3,3 -5,4 -7,4 -2,0 -3,-1 -4,-2 -1,0 -1,-2 -1,-3 0,-3 1,-6 2,-8 2,-4 5,-5 8,-5zm-2 2c-1,0 -2,0 -3,2 -1,2 -2,4 -2,7 0,2 1,3 1,4 1,1 1,1 2,1 1,0 3,0 3,-2 2,-2 2,-4 2,-7 0,-2 0,-3 -1,-4 0,-1 -1,-1 -2,-1z"/>
  <path id="9" class="fil0" d="M381 151l0 -1c1,-2 3,-3 4,-3 1,-1 2,-1 3,-1 0,0 0,0 0,0 0,0 0,0 0,1 0,0 0,0 0,0l-1 4c2,-1 4,-3 6,-4 1,-1 2,-1 2,-1 1,0 1,0 2,0 0,1 0,1 0,2 0,0 0,1 0,1 0,1 -1,3 -2,6 -1,3 -1,5 -1,6 0,0 0,0 0,0 0,1 0,1 0,1 1,0 1,-1 2,-1 1,-1 2,-2 2,-2l1 1c-2,1 -3,2 -4,3 -1,1 -2,1 -2,1 -1,0 -1,0 -2,-1 0,0 0,-1 0,-2 0,-1 1,-4 2,-9 1,-1 1,-2 1,-3 0,0 0,0 -1,0 0,0 -1,0 -2,1 -1,0 -2,1 -3,3 -1,0 -1,2 -2,3l-1 7 -3 0c0,-2 1,-4 1,-6l2 -7c0,-1 0,-1 0,-1 0,0 0,-1 0,-1 -1,0 -1,1 -1,1 -1,0 -2,1 -3,2z"/>
  <path id="10" class="fil0" d="M420 146c1,0 2,1 3,2 1,1 1,2 1,4 0,3 -1,6 -3,8 -2,3 -4,4 -7,4 -1,0 -2,-1 -3,-2 -1,0 -2,-2 -2,-3 0,-3 1,-6 3,-8 2,-4 5,-5 8,-5zm-2 2c-1,0 -2,0 -3,2 -2,2 -2,4 -2,7 0,2 0,3 1,4 0,1 1,1 2,1 1,0 2,0 3,-2 1,-2 2,-4 2,-7 0,-2 0,-3 -1,-4 -1,-1 -1,-1 -2,-1z"/>
  <path id="11" class="fil0" d="M427 147l5 0c1,-3 2,-6 3,-7 1,-2 2,-3 4,-4 1,-1 3,-2 5,-2 0,0 1,0 1,1 1,0 1,0 1,1 0,0 0,1 0,1 -1,0 -1,0 -1,0 -1,0 -2,0 -3,0 -1,0 -1,0 -2,0 -1,0 -1,0 -2,1 -1,2 -2,3 -2,5l-1 4 5 0 0 2 -5 0 -4 13c-1,4 -2,7 -4,9 -3,2 -5,3 -8,3 0,0 -1,0 -2,0 0,-1 0,-1 0,-2 0,0 0,0 0,-1 1,0 1,0 2,0 0,0 0,0 1,0 1,0 2,0 3,0 1,0 2,0 3,-1 0,0 1,-2 1,-4l5 -17 -5 0 0 -2z"/>
  <path id="12" class="fil0" d="M452 163l-3 0 3 -11c1,-5 2,-9 2,-10 1,-2 1,-3 2,-3 1,-1 1,-2 2,-3 1,0 2,-1 3,-1 1,-1 2,-1 2,-1 1,0 2,0 2,1 0,0 1,0 1,1 0,0 -1,1 -1,1 0,0 -1,0 -1,0 -1,0 -2,0 -3,0 0,0 -1,0 -1,0 0,0 -1,0 -1,0 0,1 -1,1 -1,2 0,1 -1,2 -1,5l-2 6c2,-1 3,-2 4,-3 1,-1 2,-1 3,-1 1,0 2,0 2,1 1,0 1,1 1,2 0,1 -1,2 -2,4 -2,1 -4,1 -7,1 1,1 1,1 2,2 1,1 1,1 2,2 1,1 1,3 2,5 1,3 3,5 4,6 0,1 2,1 3,1 0,0 1,0 1,0 1,-1 1,-1 1,-1 0,0 0,-1 0,-1 0,0 0,-1 0,-1 0,0 0,-1 0,-1 0,0 0,0 1,0 0,0 1,0 1,0 0,1 0,1 0,2 0,0 0,1 -1,2 -1,1 -2,1 -4,1 -1,0 -3,0 -4,-1 -1,-1 -2,-2 -3,-3 -1,-1 -2,-4 -3,-7 -1,-2 -1,-3 -2,-4 0,0 -1,-1 -2,-2l-2 9zm2 -9c2,0 4,-1 5,-1 1,0 2,-1 2,-1 1,-1 1,-2 1,-3 0,0 0,0 0,-1 -1,0 -1,0 -1,0 -2,0 -4,1 -6,4l-1 2z"/>
  <path id="13" class="fil0" d="M468 151l0 -1c1,-2 3,-3 4,-3 1,-1 2,-1 2,-1 1,0 1,0 1,0 0,0 0,0 0,1 0,0 0,0 0,0l-1 4c2,-1 4,-3 6,-4 1,-1 2,-1 2,-1 1,0 1,0 2,0 0,1 0,1 0,2 0,0 0,1 0,1 0,1 -1,3 -2,6 -1,3 -1,5 -1,6 0,0 0,0 0,0 0,1 0,1 0,1 1,0 1,-1 2,-1 1,-1 1,-2 2,-2l1 1c-2,1 -3,2 -4,3 -1,1 -2,1 -3,1 0,0 0,0 -1,-1 0,0 0,-1 0,-2 0,-1 1,-4 2,-9 1,-1 1,-2 1,-3 0,0 0,0 -1,0 0,0 -1,0 -2,1 -1,0 -2,1 -3,3 -1,0 -1,2 -2,3l-1 7 -3 0c0,-2 1,-4 1,-6l2 -7c0,-1 0,-1 0,-1 0,0 0,-1 0,-1 -1,0 -1,1 -1,1 -1,0 -2,1 -3,2z"/>
  <path id="14" class="fil0" d="M497 146c2,0 3,1 4,2 1,1 1,2 1,4 0,3 -1,6 -3,8 -2,3 -5,4 -7,4 -1,0 -3,-1 -4,-2 0,0 -1,-2 -1,-3 0,-3 1,-6 3,-8 2,-4 4,-5 7,-5zm-1 2c-2,0 -3,0 -4,2 -1,2 -1,4 -1,7 0,2 0,3 1,4 0,1 1,1 2,1 1,0 2,0 3,-2 1,-2 1,-4 1,-7 0,-2 0,-3 0,-4 -1,-1 -2,-1 -2,-1z"/>
  <path id="15" class="fil0" d="M513 147c0,-1 1,-1 1,-1 0,0 0,0 1,0 0,0 0,1 0,1 0,0 -1,1 -1,1l-2 3c0,1 -1,2 -1,3 0,0 0,1 0,2 0,1 0,3 1,6 2,-2 4,-4 6,-6 0,0 0,-1 0,-1 0,-3 0,-6 1,-7 0,-1 1,-2 2,-2 0,0 1,0 1,1 0,0 0,0 0,1 0,1 0,1 0,2 0,1 -1,2 -1,4 0,3 0,6 0,8 2,-1 4,-3 5,-4 1,-2 2,-3 3,-4 0,-2 1,-3 1,-4 0,0 0,-1 -1,-1 0,-1 0,-2 0,-2 0,0 0,-1 0,-1 0,0 1,0 1,0 1,0 1,0 1,0 0,1 1,1 1,3 0,2 -2,5 -4,8 -3,4 -6,6 -9,8 -1,-2 -1,-4 -1,-7 -2,2 -3,3 -4,3 -1,1 -2,2 -2,2 -1,1 -2,1 -3,2 0,-1 0,-2 -1,-4 0,-3 0,-4 0,-5 0,-2 0,-3 1,-5 0,-1 1,-2 3,-3 -3,0 -5,0 -6,1 0,0 -1,0 -1,1 0,0 0,0 1,1 0,0 0,0 0,1 0,0 0,0 -1,0 0,0 0,0 0,0 -1,0 -1,0 -1,0 0,0 -1,-1 -1,-1 0,-1 1,-2 2,-3 1,-1 4,-1 8,-1z"/>
  <path id="16" class="fil0" d="M541 158l1 1c-1,1 -2,2 -4,3 -1,1 -3,2 -3,2 -1,0 -1,0 -2,-1 0,0 0,0 0,-1 0,-1 0,-3 1,-7l3 -9c0,-3 1,-5 2,-6 0,-2 2,-3 3,-4 2,-1 3,-2 5,-2 1,0 1,0 1,1 1,0 1,0 1,1 0,0 0,1 0,1 -1,0 -1,0 -2,0 0,0 -1,0 -2,0 0,0 -1,0 -1,0 -1,0 -1,0 -2,0 0,1 0,1 -1,2 0,1 -1,3 -1,7l-2 8c-1,5 -2,7 -2,7 0,0 0,1 1,1 0,0 0,-1 1,-1 1,-1 2,-2 3,-3z"/>
  <path id="17" class="fil0" d="M554 158l0 1c-3,3 -6,5 -8,5 -1,0 -2,0 -3,-1 0,-1 0,-2 0,-3 0,-3 1,-6 2,-9 2,-3 5,-5 7,-5 1,0 2,0 3,1 0,0 0,1 0,2 0,1 0,1 0,2 -1,1 -2,2 -4,3 -1,0 -2,1 -5,2 0,1 0,2 0,3 0,1 0,1 0,2 1,0 1,0 2,0 0,0 1,0 2,0 1,-1 2,-2 4,-3zm-8 -3c3,-1 4,-2 5,-3 1,-1 1,-2 1,-2 0,-1 0,-1 0,-2 0,0 -1,0 -1,0 -1,0 -1,0 -2,0 0,1 -1,2 -1,3 -1,1 -1,3 -2,4z"/>
  <path id="18" class="fil0" d="M573 159l1 1c-2,1 -4,2 -5,3 -1,1 -2,1 -2,1 -1,0 -1,0 -1,0 0,0 -1,-1 -1,-1 0,0 0,-1 1,-1l0 -3c-1,2 -3,3 -4,4 -1,1 -2,1 -3,1 0,0 -1,0 -2,-1 0,-1 0,-2 0,-3 0,-2 0,-4 2,-7 1,-2 3,-4 4,-5 2,-1 3,-2 5,-2 0,0 0,0 1,0 1,-3 1,-5 2,-6 0,-1 1,-2 2,-3 1,-1 2,-1 3,-2 2,0 3,-1 4,-1 0,0 1,0 1,1 0,0 1,0 1,1 0,0 -1,1 -1,1 0,0 -1,0 -1,0 0,0 -1,0 -2,0 -1,0 -2,0 -2,0 0,0 -1,0 -1,0 -1,1 -1,1 -1,2 -1,1 -1,3 -2,6l-3 13c0,1 0,2 0,3 0,0 0,0 0,0 1,0 1,0 1,0 1,0 2,-1 3,-2zm-4 -11c-1,0 -2,0 -3,0 -1,0 -2,0 -2,1 -1,1 -2,2 -3,4 -1,2 -1,4 -1,6 0,0 0,1 0,1 1,1 1,1 2,1 0,0 1,0 2,-1 1,0 2,-1 2,-2 1,-1 1,-3 2,-5l1 -5z"/>
  <path id="19" class="fil0" d="M590 146l1 -1c-1,4 -2,7 -3,10 0,2 -1,4 -1,6 0,1 0,2 0,3 0,2 0,3 -1,5 0,1 -1,3 -3,4 -1,1 -3,1 -5,1 -2,0 -4,0 -5,-1 -1,-1 -1,-2 -1,-3 0,-1 0,-2 1,-3 0,-1 2,-2 4,-3 1,0 2,-1 3,-1 -1,0 -2,0 -3,0 0,0 -1,0 -1,0 0,-1 -1,-1 -1,-2 0,-3 1,-5 3,-8 1,-2 3,-4 5,-5 1,-1 3,-2 5,-2 0,0 1,0 1,0l1 0zm-3 3c0,0 -1,0 -1,0 -2,0 -3,0 -4,1 -1,0 -2,2 -2,3 -1,2 -2,4 -2,6 0,1 1,1 1,2 0,0 1,0 1,0 1,0 1,0 2,0 1,-1 2,-2 2,-2 1,-1 1,-3 2,-5l1 -5zm-3 11c0,1 -2,2 -5,4 -2,2 -4,3 -4,4 -1,0 -1,1 -1,2 0,1 0,1 1,2 1,1 2,1 2,1 1,0 2,0 3,-1 1,0 2,-1 3,-2 0,-1 1,-2 1,-3 0,-1 0,-2 0,-4 0,-1 0,-1 0,-3z"/>
  <path id="20" class="fil0" d="M603 158l1 1c-3,3 -6,5 -9,5 -1,0 -1,0 -2,-1 0,-1 -1,-2 -1,-3 0,-3 1,-6 3,-9 2,-3 4,-5 7,-5 1,0 2,0 3,1 0,0 0,1 0,2 0,1 0,1 -1,2 0,1 -1,2 -3,3 -1,0 -2,1 -5,2 0,1 0,2 0,3 0,1 0,1 0,2 1,0 1,0 2,0 0,0 1,0 1,0 1,-1 3,-2 4,-3zm-7 -3c2,-1 4,-2 5,-3 1,-1 1,-2 1,-2 0,-1 0,-1 0,-2 0,0 -1,0 -1,0 -1,0 -1,0 -2,0 -1,1 -1,2 -1,3 -1,1 -2,3 -2,4z"/>
  <path class="fil1 str0" d="M67 118c9,-2 18,-2 25,1 6,3 11,7 16,13 1,-1 6,-9 17,-13 8,-3 13,-2 25,-1 4,-4 -28,-11 -41,-14 -14,4 -44,9 -42,14z"/>
  <path class="fil1 str0" d="M85 66c7,1 18,-3 21,2 3,-4 16,0 24,-2l3 1 3 43 -58 1 4 -44 3 -1z"/>
  <ellipse class="fil2 str1" cx="107" cy="100" rx="91" ry="92"/>
  <ellipse class="fil2 str2" cx="107" cy="100" rx="83" ry="84"/>
  <ellipse class="fil2 str1" cx="107" cy="100" rx="54" ry="55"/>
  <path class="fil3 str0" d="M85 66c8,2 15,-2 21,2 7,-4 15,1 24,-2l0 34c-22,-1 -21,5 -23,4 -13,-7 -18,-2 -22,-3l0 -35z"/>
  <line class="fil2 str0" x1="107" y1="104" x2="106" y2= "68" />
  <path class="fil0" d="M87 37l1 -10 5 -2 1 1 -1 0c0,0 -1,0 -1,0 0,0 0,1 0,1 0,0 0,1 0,1l3 9c0,1 1,1 1,1 0,1 0,1 0,1 1,0 1,0 1,0l1 -1 0 1 -7 2 0 0 0 0c0,-1 1,-1 1,-1 0,0 0,0 0,-1 0,0 0,0 0,-1l-3 -10 -1 14 -1 0 -9 -10 3 9c0,1 1,1 1,1 0,1 0,1 0,1 1,0 1,0 2,0l0 0 -5 2 0 -1 0 0c1,0 1,0 1,0 0,0 1,0 1,-1 0,0 0,0 0,0 0,-1 0,-1 -1,-1l-2 -9c-1,-1 -1,-1 -1,-1 0,0 0,-1 0,-1 -1,0 -1,0 -1,1l-1 0 0 -1 6 -1 6 7z"/>
  <path id="1" class="fil0" d="M113 25c2,0 4,1 5,2 2,2 2,3 2,5 0,2 -1,4 -2,5 -1,2 -3,3 -6,2 -2,0 -4,-1 -6,-3 -1,-1 -1,-3 -1,-5 0,-2 1,-3 3,-5 1,-1 3,-2 5,-1zm0 0c-1,0 -2,1 -3,2 -1,1 -1,3 -1,5 0,2 0,4 1,5 0,1 1,2 2,2 1,0 2,0 2,-1 1,0 1,-1 2,-2 0,-1 0,-2 0,-4 0,-1 0,-3 0,-4 0,-1 -1,-1 -1,-2 -1,0 -1,-1 -2,-1z"/>
  <path id="2" class="fil0" d="M133 43l0 1 -7 -3 0 0 1 0c0,0 0,0 1,0 0,0 0,0 0,0 0,0 0,-1 1,-1l2 -9c1,-1 1,-1 1,-2 0,0 0,0 -1,0 0,0 0,-1 0,-1l-1 0 0 0 7 2 0 0 0 0c-1,0 -1,0 -1,0 0,0 -1,0 -1,0 0,1 0,1 0,2l-3 9c0,0 0,1 0,1 0,0 0,0 0,1 0,0 0,0 1,0l0 0z"/>
  <path class="fil0" d="M43 109l2 7 0 0 0 0c0,-1 -1,-1 -1,-1 0,-1 0,-1 0,-1 -1,0 -1,0 -2,1l-6 1c-2,1 -2,1 -3,1 0,1 0,1 0,1 0,1 0,1 0,2 0,1 0,1 1,2 0,0 1,1 1,1 1,0 2,0 3,-1l6 -1c0,0 1,-1 1,-1 0,0 0,0 0,0 1,-1 1,-1 0,-2l1 0 1 5 0 0 0 0c-1,-1 -1,-1 -1,-1 0,0 0,-1 -1,-1 0,0 0,0 -1,1l-5 1c-2,0 -3,1 -3,1 -1,0 -2,-1 -3,-1 -1,-1 -1,-2 -2,-4 0,-1 0,-2 0,-2 0,-1 1,-2 1,-3 1,0 2,-1 3,-1l6 -2c1,0 2,0 2,0 0,0 0,0 0,-1 0,0 0,0 0,-1l0 0z"/>
  <path id="1" class="fil0" d="M52 133l-3 10 5 -3c1,-1 1,-1 1,-1 0,-1 0,-1 0,-2l0 0 2 4 0 0c0,-1 -1,-1 -1,-1 0,0 0,0 0,0 -1,0 -1,0 -2,1l-9 6 0 0 4 -14 -7 5c-1,0 -1,1 -1,1 0,1 0,1 0,1l0 1 0 0 -3 -4 0 0c1,0 1,1 2,1 0,0 1,-1 1,-1l8 -6 0 0c0,0 0,-1 0,-1 0,0 0,-1 0,-1l0 0 3 4z"/>
  <path id="2" class="fil0" d="M60 161l0 0 -6 -4 0 0 1 0c0,0 0,0 1,0 0,0 0,0 0,0 0,0 1,0 1,-1l6 -7c0,-1 0,-1 0,-1 1,0 1,-1 0,-1 0,0 0,0 0,0l-1 -1 1 0 5 4 0 1 0 -1c-1,0 -1,0 -1,0 0,0 -1,0 -1,0 0,0 0,1 -1,1l-5 7c-1,1 -1,1 -1,1 0,1 0,1 0,1 0,0 0,1 1,1l0 0z"/>
  <path id="3" class="fil0" d="M88 160l-1 0c0,0 -1,0 -1,0 0,1 -1,1 -2,2l-9 8 0 0 0 -12c0,-1 0,-2 0,-3 0,0 -1,0 -1,0l0 -1 6 3 0 0 0 0c-1,0 -1,0 -1,0 -1,0 -1,0 -1,0 0,0 0,0 0,1 0,0 0,0 0,1l0 7 5 -4c1,-1 1,-1 1,-1 0,-1 0,-1 1,-1 0,0 0,0 0,0 0,-1 -1,-1 -1,-1 0,0 0,0 -1,-1l0 0 5 2z"/>
  <path id="4" class="fil0" d="M99 163l0 5 0 0c1,0 1,0 2,0 0,-1 1,-2 1,-3l0 0 0 8 -1 0c0,-1 0,-2 0,-2 0,-1 -1,-1 -1,-1 0,-1 -1,-1 -2,-1l0 4c0,1 0,1 0,1 0,1 0,1 0,1 1,0 1,0 1,0l1 0c1,0 2,0 3,0 1,-1 2,-2 2,-3l1 0 -1 4 -12 -1 0 0 0 0c1,0 1,0 1,0 0,0 0,0 1,-1 0,0 0,0 0,-1l1 -9c0,-1 0,-1 0,-1 0,0 -1,-1 -1,-1 0,0 0,0 -1,0l0 0 0 -1 11 1 0 5 0 0c0,-1 -1,-2 -1,-3 0,0 -1,-1 -1,-1 -1,0 -1,0 -3,0l-1 0z"/>
  <path id="5" class="fil0" d="M121 169l1 3c0,1 0,2 0,2 0,0 0,0 1,0 0,0 0,0 1,0l0 0 -7 2 0 -1c1,0 1,0 1,0 0,0 0,0 1,-1 0,0 0,0 -1,-1l-1 -9c0,-1 -1,-1 -1,-1 0,0 0,0 0,-1 -1,0 -1,0 -2,1l0 -1 7 -1c1,0 3,-1 3,0 1,0 2,0 2,0 1,1 1,2 2,2 0,2 0,2 -1,3 0,1 -1,1 -2,2l4 3c1,1 1,1 1,1 1,1 1,1 1,1l1 0 -5 1 -5 -6 -1 1zm-1 -7l1 6 0 0c1,0 2,-1 2,-1 1,0 1,-1 1,-1 0,-1 0,-1 0,-2 0,-1 0,-2 -1,-2 0,0 -1,0 -2,0l-1 0z"/>
  <path id="6" class="fil0" d="M142 152l3 4 -1 0c0,-1 -1,-1 -2,-1 -1,-1 -2,-1 -3,0 -1,0 -1,1 -1,1 0,1 0,1 0,2 0,0 0,0 1,0 0,0 0,1 1,1 0,0 1,0 2,0 2,-1 4,-1 4,0 1,0 2,1 2,1 1,1 1,3 1,4 -1,1 -1,2 -3,3 0,0 0,0 -1,0 0,0 -1,0 -1,0 -1,0 -1,1 -1,1 0,0 0,0 0,0 0,0 0,1 0,1l-1 0 -2 -4 0 -1c1,1 2,2 3,2 1,1 2,0 3,0 1,0 1,-1 1,-2 0,0 0,-1 0,-1 0,0 0,-1 -1,-1 0,0 0,0 -1,0 0,0 -1,0 -2,0 -1,0 -2,0 -3,0 -1,0 -1,0 -2,-1 0,0 -1,0 -1,-1 -1,-1 -1,-2 -1,-3 1,-1 1,-2 2,-3 1,0 1,0 2,0 0,0 0,0 1,0 0,0 1,0 1,-1 0,0 0,0 0,0 0,0 0,0 0,-1l0 0z"/>
  <path id="7" class="fil0" d="M164 151l1 0 -5 5 -1 0 1 0c0,-1 0,-1 0,-1 0,0 0,0 0,-1 0,0 0,0 -1,-1l-6 -6c-1,-1 -1,-1 -1,-1 0,0 0,0 -1,0 0,0 0,0 0,0l-1 1 0 -1 5 -5 0 1 0 0c0,0 0,0 -1,1 0,0 0,0 1,0 0,1 0,1 0,1l7 7c0,0 0,1 1,1 0,0 0,0 0,0 1,0 1,0 1,-1l0 0z"/>
  <path id="8" class="fil0" d="M167 125l3 2 0 1c-1,-1 -2,-1 -2,-1 0,0 -1,0 -1,1 -1,0 -1,0 -1,1l-1 1 9 5c1,1 1,1 1,1 1,0 1,0 1,0 0,0 1,-1 1,-1l0 0 0 0 -3 6 -1 0 0 -1c1,0 1,0 1,-1 0,0 0,0 0,0 -1,0 -1,-1 -1,-1l-9 -6 -1 1c-1,1 -1,2 -1,2 1,1 1,2 2,2l0 1 -4 -2 7 -11z"/>
  <path id="9" class="fil0" d="M173 107l0 0c0,0 0,1 1,1 0,0 0,1 1,2l5 4 3 1c1,0 1,0 1,0 0,0 1,0 1,0 0,-1 0,-1 0,-1l0 -1 1 0 -2 8 0 0 0 -1c0,0 0,-1 0,-1 0,0 0,0 -1,-1 0,0 0,0 -1,0l-3 -1 -6 2c-1,1 -2,1 -2,1 -1,0 -1,1 -1,1l0 0 1 -6 1 0 0 0c-1,0 -1,1 -1,1 1,0 1,0 1,0 0,0 1,0 2,0l5 -2 -4 -3c-1,-1 -1,-1 -1,-1 -1,0 -1,0 -1,0 0,0 0,0 -1,1l0 0 1 -4z"/>
  <path class="fil1" d="M186 213c8,4 17,9 25,17l0 -1 -6 -11 8 1 -15 -11 -11 2 -1 3z"/>
  <path class="fil1" d="M35 213c-8,3 -18,7 -26,14l0 -1 7 -10 -8 1 16 -11 11 3 0 4z"/>
  <path class="fil2 str0" d="M8 212c0,0 7,-16 43,-21 32,-4 37,9 61,7 17,-1 42,-16 76,-2 10,4 17,9 27,16l-9 9 -18 -10c-16,-6 -31,-9 -43,-7 -5,1 -14,5 -14,6l0 2c-6,-2 -13,-2 -19,0 -7,-2 -12,-1 -18,1l1 -4c-31,-8 -53,-5 -80,10l-7 -7z"/>
  <path class="fil4" d="M8 212c0,0 7,-16 43,-21 32,-4 37,9 61,7 17,-1 42,-16 76,-2 10,4 17,9 27,16l-9 9 -18 -10c-16,-6 -31,-9 -43,-7 -5,1 -14,5 -14,6l0 2c-6,-2 -13,-2 -19,0 -7,-2 -12,-1 -18,1l1 -4c-31,-8 -53,-5 -80,10l-7 -7z"/>
  <path class="fil0" d="M30 199l2 3 0 0c0,0 0,0 0,0 1,-1 1,-1 1,-1 0,0 0,-1 0,-1l0 0 1 3 0 0c0,0 -1,-1 -1,-1 0,0 -1,0 -1,0l0 0 0 3c1,0 1,0 1,0 0,0 0,0 0,0 0,0 0,0 1,0l0 0 0 0 -4 2 0 0 0 -1c1,0 1,0 1,0 0,0 0,0 0,0 0,0 0,0 0,-1l-2 -4c0,-1 0,-1 0,-1 0,0 0,0 -1,0 0,0 0,0 0,0l0 0 0 0 6 -2 0 2 0 0c0,-1 0,-1 -1,-1 0,0 0,0 -1,0 0,0 0,0 -1,0l-1 0z"/>
  <path id="1" class="fil0" d="M39 197c1,-1 2,-1 3,0 1,0 1,1 2,2 0,1 0,2 -1,3 0,1 -1,2 -2,2 -2,0 -3,0 -4,-1 0,0 -1,-1 -1,-2 0,-1 0,-2 0,-3 1,-1 2,-1 3,-1zm0 0c-1,0 -1,1 -1,1 0,1 0,2 0,3 0,1 1,2 1,2 1,1 1,1 2,1 0,0 0,-1 0,-1 1,0 1,-1 1,-1 0,-1 0,-1 0,-2 -1,-1 -1,-2 -1,-2 0,-1 -1,-1 -1,-1 0,0 -1,0 -1,0z"/>
  <path id="2" class="fil0" d="M127 202l4 3c0,0 1,0 1,0 0,0 0,0 0,0l0 0 -3 1 0 0c0,0 0,0 0,0 0,0 0,0 0,0 0,0 0,-1 0,-1l-3 -2 0 1 1 2c0,0 0,0 0,0 0,0 0,0 0,0 0,0 1,0 1,0l0 1 -4 1 0 -1 0 0c1,0 1,0 1,0 0,0 0,0 0,0 0,0 0,-1 0,-1l-1 -5c0,0 0,0 0,0 -1,0 -1,0 -1,-1 0,0 0,0 0,0l0 1 -1 -1 4 -1 0 1c0,0 0,0 0,0 -1,0 -1,0 -1,0 0,0 0,1 0,1l1 2 2 -3c0,0 1,0 1,-1 -1,0 -1,0 -1,0 0,0 0,0 0,0l0 0 2 -1 0 1c0,0 0,0 0,0 0,0 -1,0 -1,1l-2 2z"/>
  <path id="3" class="fil0" d="M44 196l4 -1 0 0 0 0c-1,0 -1,0 -1,1 0,0 0,0 0,0 0,0 0,0 0,1l0 3c1,1 1,1 1,1 0,1 0,1 0,1 1,0 1,0 1,0 1,0 1,0 1,0 0,-1 1,-1 1,-1 0,-1 0,-1 0,-2l-1 -3c0,0 0,0 0,-1 0,0 0,0 0,0 0,0 -1,0 -1,0l0 0 3 0 0 0 -1 0c0,0 0,0 0,0 0,0 0,0 0,0 0,1 0,1 0,1l0 3c0,1 0,1 0,2 0,0 0,0 0,1 -1,0 -1,1 -2,1 -1,0 -1,0 -2,0 0,-1 -1,-1 -1,-1 0,-1 0,-1 0,-2l-1 -3c0,-1 0,-1 0,-1 0,0 0,0 0,0 0,0 -1,0 -1,0l0 0z"/>
  <path id="4" class="fil0" d="M117 202l0 3 1 0c0,0 0,0 0,-1 1,0 1,0 1,0 0,0 0,-1 0,-1l0 0 1 4 0 0c-1,-1 -1,-2 -1,-2 -1,0 -1,0 -1,0l-1 0 1 2c0,1 0,1 0,1 0,0 0,0 0,0 0,0 1,0 1,0l0 0 0 0 -4 1 0 0 0 0c1,0 1,0 1,0 0,0 0,-1 0,-1 0,0 0,0 0,0l-1 -5c0,-1 0,-1 0,-1 0,0 0,0 0,0 0,0 0,0 -1,0l0 0 0 0 6 -1 1 2 -1 0c0,-1 0,-1 0,-1 0,0 -1,0 -1,0 0,-1 -1,0 -1,0l-1 0z"/>
  <path id="5" class="fil0" d="M55 194l4 5 0 -3c0,-1 0,-1 0,-1 0,-1 -1,-1 -1,-1l0 0 2 0 0 0c0,0 0,0 0,0 -1,1 -1,1 -1,1 0,0 0,0 0,1l1 6 -1 0 -5 -6 0 5c0,0 1,0 1,0 0,0 0,1 0,1l1 0 0 0 -3 0 0 0c0,0 1,0 1,-1 0,0 0,0 0,0l0 -6 0 0c-1,0 -1,0 -1,0 0,0 0,0 0,0l0 -1 2 0z"/>
  <path id="6" class="fil0" d="M61 201l0 0 0 0c0,0 1,0 1,0 0,0 0,0 0,0 0,0 0,0 0,-1l0 -5c1,0 0,0 0,0 0,-1 0,-1 0,-1 0,0 0,0 0,0l0 0 0 0 3 0c1,0 1,0 2,1 1,0 1,1 1,1 1,1 1,1 1,2 0,1 -1,1 -1,2 0,0 0,0 0,1 -1,0 -1,0 -1,0 -1,0 -1,1 -2,1 0,0 0,0 -1,0l-3 -1zm3 -6l0 5c0,1 0,1 0,1 0,0 0,0 0,0 0,0 0,0 0,0 1,0 2,0 2,0 0,-1 1,-2 1,-3 0,-1 0,-2 -1,-2 0,-1 0,-1 0,-1 -1,0 -1,0 -2,0z"/>
  <path id="7" class="fil0" d="M74 201l-3 -1 0 1c0,0 -1,0 -1,0 0,1 0,1 1,1 0,0 0,0 0,0l0 0 -2 0 0 0c0,0 0,0 1,0 0,-1 0,-1 0,-1l4 -6 0 0 2 7c0,0 0,1 0,1 0,0 0,0 1,0l0 0 -4 0 0 -1 0 0c1,1 1,1 1,0 0,0 0,0 0,0 0,0 0,0 0,0 0,0 0,0 0,0l0 -1zm0 -1l-1 -2 -2 2 3 0z"/>
  <path id="8" class="fil0" d="M100 201l2 5 1 -3c0,0 0,-1 0,-1 0,0 -1,0 -1,0l0 0 2 0 0 0c0,0 0,0 0,0 0,0 0,0 -1,0 0,1 0,1 0,1l-1 6 0 0 -4 -7 -1 5c0,0 0,1 1,1 0,0 0,0 0,0l0 0 0 0 -2 0 0 0c0,0 1,0 1,0 0,0 0,-1 0,-1l1 -5 0 0c0,-1 0,-1 -1,-1 0,0 0,0 0,0l0 0 3 0z"/>
  <path id="9" class="fil0" d="M85 198l-1 2 0 0c0,-1 0,-1 0,-1 0,0 0,-1 0,-1 -1,0 -1,0 -1,0l-1 0 -1 5c0,1 0,1 0,1 0,0 0,0 0,0 0,0 0,0 0,0l0 1 0 0 -3 -1 0 -1 0 1c0,0 0,0 0,0 1,0 1,-1 1,-1 0,0 0,0 0,0l2 -6 -1 0c0,0 -1,0 -1,0 0,0 -1,1 -1,1l0 0 0 -2 7 2z"/>
  <path id="10" class="fil0" d="M87 206l0 0 -4 -1 0 0 1 0c0,0 0,0 0,0 0,0 0,0 0,0 0,0 0,0 1,-1l1 -4c0,-1 0,-1 0,-1 0,0 0,0 0,0 0,-1 0,-1 -1,-1l0 0 0 0 4 1 0 0 0 0c-1,0 -1,0 -1,0 0,0 0,0 0,0 0,0 0,1 0,1l-2 5c0,0 0,0 0,0 0,0 0,1 0,1 0,0 1,0 1,0l0 0z"/>
  <path id="11" class="fil0" d="M93 200c1,0 2,1 3,2 0,1 0,2 0,3 0,1 -1,1 -1,2 -1,1 -2,1 -4,0 -1,0 -2,-1 -2,-2 -1,0 -1,-1 -1,-2 1,-1 1,-2 2,-3 1,0 2,0 3,0zm0 0c-1,0 -1,0 -2,1 0,0 0,1 -1,2 0,1 0,2 0,3 0,1 1,1 1,1 1,0 1,0 1,0 1,0 1,0 1,-1 1,0 1,-1 1,-2 0,-1 0,-1 0,-2 0,0 0,-1 0,-1 0,0 -1,-1 -1,-1z"/>
  <path id="12" class="fil0" d="M175 202l0 0 0 0c0,0 0,0 0,0 0,0 1,0 1,-1 0,0 0,0 0,0l1 -5c0,0 0,0 0,-1 0,0 0,0 0,0 0,0 0,0 0,0l-1 0 0 0 4 0c0,1 1,1 1,1 1,1 1,1 2,2 0,1 0,1 0,2 -1,1 -1,1 -1,1 0,1 -1,1 -1,1 0,0 -1,1 -1,1 0,0 -1,0 -1,0 0,0 -1,0 -1,0l-3 -1zm4 -6l-1 5c-1,1 -1,1 -1,1 0,0 0,0 1,0 0,0 0,0 0,0 1,0 1,0 1,0 1,0 1,-1 2,-2 0,-1 0,-2 0,-3 0,0 -1,-1 -1,-1 0,0 0,0 -1,0z"/>
  <path id="13" class="fil0" d="M110 202c2,0 3,0 3,1 1,0 1,1 1,2 1,1 0,2 0,3 -1,1 -2,1 -3,1 -2,0 -3,0 -3,-1 -1,-1 -1,-2 -1,-3 0,-1 0,-2 1,-2 0,-1 1,-1 2,-1zm1 0c-1,0 -2,0 -2,1 0,1 0,1 0,2 0,2 0,3 0,3 1,1 1,1 2,1 0,0 0,0 1,0 0,-1 0,-1 0,-2 0,0 1,-1 1,-2 0,-1 -1,-1 -1,-2 0,0 0,-1 0,-1 -1,0 -1,0 -1,0z"/>
  <path id="14" class="fil0" d="M143 195c1,0 2,0 3,1 1,0 1,1 1,2 1,1 1,2 0,3 0,1 -1,2 -3,2 -1,0 -2,0 -3,-1 -1,0 -1,-1 -1,-2 0,-1 0,-2 0,-3 1,-1 2,-1 3,-2zm0 1c-1,0 -1,0 -1,1 0,1 0,1 0,2 0,2 0,3 1,3 0,0 1,1 1,0 1,0 1,0 1,0 0,0 1,-1 1,-1 0,-1 0,-1 0,-2 -1,-1 -1,-2 -1,-2 0,-1 -1,-1 -1,-1 0,0 -1,0 -1,0z"/>
  <path id="15" class="fil0" d="M133 198l5 3 -1 -3c0,0 0,0 0,-1 0,0 -1,0 -1,0l0 0 2 0 0 0c0,0 0,0 0,0 0,0 0,0 0,0 0,1 0,1 0,1l1 6 0 0 -6 -5 1 5c0,0 0,1 0,1 0,0 1,0 1,0l0 0 0 0 -2 1 0 -1c0,0 0,0 0,0 0,0 0,-1 0,-1l-1 -5 0 0c0,0 0,0 -1,0 0,-1 0,-1 0,0l0 -1 2 0z"/>
  <path id="16" class="fil0" d="M159 193l0 1c0,0 0,0 -1,0 0,0 0,0 0,0 0,0 0,0 0,1l-2 6 0 0 -2 -4 -2 5 0 0 -3 -6c0,-1 0,-1 -1,-1 0,0 0,0 0,0l0 0 3 -1 0 0c0,0 0,0 0,1 0,0 0,0 0,0 0,0 0,0 0,1l2 3 1 -3 -1 -1c0,0 0,0 0,0 0,-1 -1,-1 -1,-1 0,0 0,0 0,0l0 0 3 0 0 0c0,0 0,0 0,0 0,0 0,0 0,0 0,0 0,0 0,0 0,0 0,1 0,1l2 3 1 -3c0,0 0,0 0,0 0,-1 0,-1 0,-1 0,0 0,0 -1,0 0,0 0,0 0,0l0 0 2 -1z"/>
  <path id="17" class="fil0" d="M167 198l-1 3 -6 0 0 0 0 0c0,0 1,0 1,0 0,0 0,0 0,-1 0,0 0,0 0,0l0 -5c0,-1 0,-1 0,-1 0,0 0,0 0,0 0,0 -1,0 -1,0l0 0 0 0 4 0 0 0 0 0c-1,0 -1,0 -1,0 0,0 0,0 0,0 0,0 0,0 0,1l0 5c0,0 0,0 0,0 0,0 0,0 0,1 0,0 0,0 1,0l0 0c1,0 1,0 1,-1 1,0 1,0 1,0 0,-1 0,-1 0,-2l1 0z"/>
  <path id="18" class="fil0" d="M171 194l0 3 0 0c0,1 1,0 1,0 0,0 0,-1 0,-1l1 0 -1 4 0 0c0,-1 0,-1 0,-1 0,-1 -1,-1 -1,-1 0,0 0,0 0,0l-1 2c0,0 0,1 0,1 0,0 0,0 0,0 0,0 1,0 1,0l0 0c1,0 2,0 2,0 0,0 1,-1 1,-2l0 0 0 3 -7 -1 0 0 1 0c0,0 0,0 0,0 0,0 0,0 0,0 0,-1 0,-1 1,-1l0 -5c0,0 0,0 0,-1 0,0 0,0 0,0 0,0 0,0 -1,0l0 0 0 0 6 0 0 3 0 0c0,-1 0,-1 0,-2 -1,0 -1,0 -1,0 0,0 -1,0 -1,0l-1 -1z"/>
  <path id="19" class="fil0" d="M192 199l-1 3 0 0c0,-1 0,-2 0,-2 -1,-1 -1,-1 -2,-1 0,0 -1,0 -1,0 -1,0 -1,0 -1,1 -1,0 -1,1 -1,1 0,1 -1,1 -1,2 0,1 0,1 1,1 0,1 0,1 1,1 0,0 0,0 0,0 1,0 1,0 1,0l1 -1c0,0 0,-1 0,-1 0,0 0,0 0,0 -1,0 -1,0 -1,0l0 0 0 0 3 1 0 0c0,0 0,0 0,0 0,0 -1,0 -1,0 0,0 0,0 0,1l0 1c-1,0 -1,0 -2,0 0,0 -1,0 -1,-1 -1,0 -2,0 -2,0 0,-1 -1,-1 -1,-2 0,0 0,0 0,-1 0,0 0,-1 0,-2 0,-1 1,-1 2,-2 1,0 2,0 3,0 1,0 1,1 1,1 0,0 0,0 1,0 0,0 0,1 0,1 0,0 0,0 1,0 0,0 0,-1 0,-1l0 0z"/>
  <path id="20" class="fil0" d="M196 202l-1 2 0 0c0,1 1,1 1,0 0,0 0,0 1,-1l0 0 -2 4 0 0c0,0 0,-1 0,-1 0,0 0,-1 0,-1 0,0 0,0 -1,0l0 2c-1,0 -1,0 -1,0 0,0 0,1 0,1 1,0 1,0 1,0l0 0c1,0 1,0 2,0 0,0 1,0 1,-1l1 0 -2 2 -6 -2 1 0 0 0c0,0 0,0 0,0 0,0 1,0 1,0 0,0 0,-1 0,-1l2 -4c0,-1 0,-1 0,-1 0,0 0,0 0,0 0,0 0,-1 -1,-1l0 0 0 0 6 2 -1 3 0 -1c0,0 0,-1 0,-1 0,0 0,0 -1,-1 0,0 0,0 -1,0l0 0z"/>
  <polyline class="fil2 str3" points="71,78 71,112 107,123 146,112 146,78 "/>
  <ellipse class="fil3 str0" cx="71" cy="78" rx="2" ry="1"/>
  <path class="fil5" d="M107 122l-33 -11 33 -7 38 6c0,1 -39,12 -38,12z"/>
  <ellipse class="fil3 str0" cx="147" cy="78" rx="2" ry="1"/>
 </g>
</svg>
